<svg width="32" height="32" viewBox="0 0 32 32" fill="none" xmlns="http://www.w3.org/2000/svg">
<path d="M4 8C4 6.89543 4.89543 6 6 6V6C7.10457 6 8 6.89543 8 8V8C8 9.10457 7.10457 10 6 10V10C4.89543 10 4 9.10457 4 8V8Z" fill="black"/>
<path d="M4 16C4 14.8954 4.89543 14 6 14V14C7.10457 14 8 14.8954 8 16V16C8 17.1046 7.10457 18 6 18V18C4.89543 18 4 17.1046 4 16V16Z" fill="black"/>
<path d="M4 24C4 22.8954 4.89543 22 6 22V22C7.10457 22 8 22.8954 8 24V24C8 25.1046 7.10457 26 6 26V26C4.89543 26 4 25.1046 4 24V24Z" fill="black"/>
<path d="M12 24C12 22.8954 12.8954 22 14 22H26C27.1046 22 28 22.8954 28 24V24C28 25.1046 27.1046 26 26 26H14C12.8954 26 12 25.1046 12 24V24Z" fill="black"/>
<path d="M12 16C12 14.8954 12.8954 14 14 14H26C27.1046 14 28 14.8954 28 16V16C28 17.1046 27.1046 18 26 18H14C12.8954 18 12 17.1046 12 16V16Z" fill="black"/>
<path d="M12 8C12 6.89543 12.8954 6 14 6H26C27.1046 6 28 6.89543 28 8V8C28 9.10457 27.1046 10 26 10H14C12.8954 10 12 9.10457 12 8V8Z" fill="black"/>
</svg>
