<svg width="40" height="40" viewBox="0 0 40 40" fill="none" xmlns="http://www.w3.org/2000/svg">
<g filter="url(#filter0_dd_20_2)">
<path d="M9 23.5L15.5593 17.8152C16.0423 17.3966 16.7887 17.5324 17.0934 18.0942L20.1362 23.7057C20.8356 24.9956 22.1851 25.799 23.6525 25.799H23.9168C25.4374 25.799 26.8265 24.9368 27.5013 23.5742L31.5 15.5" stroke="white" stroke-width="5" stroke-linecap="round"/>
</g>
<path d="M9 23L15.5524 17.1466C16.0352 16.7152 16.7943 16.8494 17.1001 17.4201L20.2887 23.3722C21.8328 26.2546 25.9952 26.1671 27.4168 23.2223L31 15.8" stroke="#FF4076" stroke-width="5" stroke-linecap="round"/>
<path d="M9 22.5L15.5545 16.8195C16.039 16.3995 16.7881 16.5377 17.0909 17.1029L20.2887 23.0722C21.8328 25.9546 25.9952 25.8671 27.4168 22.9223L31 15.5" stroke="#FC40FF" stroke-width="5" stroke-linecap="round"/>
<path d="M9.0889 22.5L15.5496 16.9007C16.0357 16.4794 16.7874 16.62 17.0884 17.1885L20.2246 23.1131C21.7563 26.0065 25.9253 25.9351 27.3571 22.991L31 15.5" stroke="#9C40FF" stroke-width="4.5" stroke-linecap="round"/>
<path d="M9 22L15.6684 16.1416C16.1609 15.7088 16.9296 15.8592 17.2228 16.4456L20.1632 22.3265C21.6828 25.3657 26.0601 25.2458 27.4112 22.1281L30.5 15" stroke="#424BFF" stroke-width="5" stroke-linecap="round"/>
<path d="M9 22L15.6483 16.1103C16.1403 15.6745 16.9119 15.8237 17.2058 16.4116L20.1632 22.3265C21.6828 25.3657 26.0601 25.2458 27.4112 22.1281L30.5 15" stroke="#03ABFF" stroke-width="4.5" stroke-linecap="round"/>
<g filter="url(#filter1_d_20_2)">
<path d="M9 21.5L15.8264 15.3662C16.3138 14.9282 17.0838 15.0696 17.3838 15.6522L20.4039 21.5168C21.8366 24.299 25.8614 24.1567 27.0941 21.2803L30 14.5" stroke="white" stroke-width="5" stroke-linecap="round"/>
</g>
<defs>
<filter id="filter0_dd_20_2" x="2.49996" y="8.99945" width="35.5006" height="23.2995" filterUnits="userSpaceOnUse" color-interpolation-filters="sRGB">
<feFlood flood-opacity="0" result="BackgroundImageFix"/>
<feColorMatrix in="SourceAlpha" type="matrix" values="0 0 0 0 0 0 0 0 0 0 0 0 0 0 0 0 0 0 127 0" result="hardAlpha"/>
<feOffset/>
<feGaussianBlur stdDeviation="2"/>
<feComposite in2="hardAlpha" operator="out"/>
<feColorMatrix type="matrix" values="0 0 0 0 0.676875 0 0 0 0 0.4125 0 0 0 0 1 0 0 0 0.4 0"/>
<feBlend mode="normal" in2="BackgroundImageFix" result="effect1_dropShadow_20_2"/>
<feColorMatrix in="SourceAlpha" type="matrix" values="0 0 0 0 0 0 0 0 0 0 0 0 0 0 0 0 0 0 127 0" result="hardAlpha"/>
<feOffset/>
<feGaussianBlur stdDeviation="0.75"/>
<feComposite in2="hardAlpha" operator="out"/>
<feColorMatrix type="matrix" values="0 0 0 0 0 0 0 0 0 0 0 0 0 0 0 0 0 0 0.75 0"/>
<feBlend mode="normal" in2="effect1_dropShadow_20_2" result="effect2_dropShadow_20_2"/>
<feBlend mode="normal" in="SourceGraphic" in2="effect2_dropShadow_20_2" result="shape"/>
</filter>
<filter id="filter1_d_20_2" x="6.19998" y="11.6994" width="26.6007" height="14.6236" filterUnits="userSpaceOnUse" color-interpolation-filters="sRGB">
<feFlood flood-opacity="0" result="BackgroundImageFix"/>
<feColorMatrix in="SourceAlpha" type="matrix" values="0 0 0 0 0 0 0 0 0 0 0 0 0 0 0 0 0 0 127 0" result="hardAlpha"/>
<feOffset/>
<feGaussianBlur stdDeviation="0.15"/>
<feComposite in2="hardAlpha" operator="out"/>
<feColorMatrix type="matrix" values="0 0 0 0 0.389672 0 0 0 0 0.152812 0 0 0 0 0.679167 0 0 0 1 0"/>
<feBlend mode="normal" in2="BackgroundImageFix" result="effect1_dropShadow_20_2"/>
<feBlend mode="normal" in="SourceGraphic" in2="effect1_dropShadow_20_2" result="shape"/>
</filter>
</defs>
</svg>
